<?xml version="1.0" standalone="no"?>
<!DOCTYPE svg PUBLIC "-//W3C//DTD SVG 20010904//EN"
 "http://www.w3.org/TR/2001/REC-SVG-20010904/DTD/svg10.dtd">
<svg version="1.0" xmlns="http://www.w3.org/2000/svg"
 width="407.000000pt" height="360.000000pt" viewBox="0 0 407.000000 360.000000"
 preserveAspectRatio="xMidYMid meet">

<g transform="translate(0.000000,360.000000) scale(0.100000,-0.100000)"
fill="#000000" stroke="none">
<path d="M1970 3581 c-107 -56 -107 -210 0 -263 72 -37 158 -11 198 60 28 50
28 94 1 142 -41 72 -129 99 -199 61z"/>
<path d="M1430 3504 c-58 -19 -145 -55 -195 -79 -102 -50 -275 -159 -275 -174
0 -16 59 -60 98 -72 60 -18 288 -23 350 -6 69 19 67 5 -3 -18 -30 -11 -55 -22
-55 -26 0 -4 18 -23 40 -43 44 -39 81 -45 153 -25 60 16 68 4 9 -15 -28 -10
-50 -21 -47 -25 2 -5 28 -24 57 -44 l53 -36 73 11 c53 9 75 9 80 1 4 -6 60
-14 130 -18 137 -8 138 -7 106 60 -20 42 -50 62 -113 76 -62 13 -109 44 -135
88 -17 29 -21 59 -25 179 l-6 144 -33 29 c-47 42 -122 40 -262 -7z"/>
<path d="M2389 3525 c-38 -21 -47 -56 -51 -200 -4 -141 -15 -175 -64 -214 -15
-12 -45 -26 -68 -32 -81 -21 -122 -46 -139 -82 -33 -69 -32 -70 106 -62 69 4
125 12 129 18 5 8 27 8 79 -1 l73 -13 53 37 c30 20 56 40 58 45 3 4 -19 15
-47 25 -59 19 -51 31 9 15 72 -20 109 -14 153 25 22 20 40 39 40 43 0 4 -25
15 -55 25 -70 22 -72 38 -2 19 97 -25 315 -14 382 19 26 14 65 49 65 60 0 13
-155 111 -256 162 -220 111 -390 152 -465 111z"/>
<path d="M1948 3279 c-10 -6 -10 -13 -2 -26 26 -42 101 -55 153 -28 59 30 44
69 -20 53 -26 -7 -52 -7 -78 -1 -22 6 -45 7 -53 2z"/>
<path d="M865 3213 c-22 -9 -222 -52 -444 -97 -440 -89 -447 -91 -401 -142 96
-102 329 -110 690 -23 146 36 337 99 430 141 l65 30 -81 18 c-85 19 -151 47
-173 74 -16 19 -33 19 -86 -1z"/>
<path d="M3119 3214 c-22 -27 -88 -55 -173 -74 l-81 -18 65 -30 c85 -39 279
-104 405 -136 366 -92 618 -85 715 18 46 50 39 53 -406 143 -225 45 -427 89
-449 98 -51 19 -59 19 -76 -1z"/>
<path d="M2002 3183 c-36 -31 -33 -91 7 -135 25 -28 31 -31 46 -18 45 38 59
116 25 150 -25 25 -51 25 -78 3z"/>
<path d="M1120 3060 c-177 -81 -447 -161 -669 -199 -117 -20 -132 -33 -71 -63
114 -56 466 -36 670 37 86 31 370 173 370 186 0 4 -25 26 -57 48 -75 55 -106
53 -243 -9z"/>
<path d="M2744 3097 c-36 -21 -94 -69 -94 -78 0 -12 283 -152 370 -184 94 -34
196 -54 329 -65 182 -15 376 16 376 59 0 10 -30 19 -106 32 -223 38 -482 114
-674 200 -112 50 -162 59 -201 36z"/>
<path d="M1310 2934 c-52 -30 -143 -74 -201 -99 -98 -41 -287 -95 -335 -95
-11 0 -29 -6 -39 -14 -18 -13 -18 -14 4 -26 85 -45 415 -3 564 71 76 38 257
150 257 159 0 16 -89 60 -122 59 -21 0 -68 -20 -128 -55z"/>
<path d="M2553 2964 c-24 -14 -43 -29 -43 -34 0 -14 244 -156 309 -181 115
-43 221 -62 346 -63 66 -1 132 2 148 7 33 9 36 35 5 41 -13 2 -79 17 -148 34
-144 34 -252 78 -404 162 -122 68 -150 72 -213 34z"/>
<path d="M1495 2858 c-49 -28 -129 -73 -177 -101 -49 -27 -88 -53 -88 -58 0
-10 65 -29 98 -29 16 0 44 21 85 63 99 102 215 147 377 147 75 0 108 11 74 24
-9 3 -75 6 -147 6 l-132 0 -90 -52z"/>
<path d="M1924 2896 c-18 -14 -18 -16 21 -56 22 -22 46 -39 55 -38 15 3 34 83
24 99 -8 14 -78 10 -100 -5z"/>
<path d="M2050 2871 c0 -46 8 -71 22 -71 17 0 88 61 88 75 0 20 -32 35 -74 35
-35 0 -36 -1 -36 -39z"/>
<path d="M2201 2901 c-21 -14 -1 -19 83 -20 166 -3 297 -57 384 -158 33 -39
51 -53 71 -53 35 0 101 19 101 29 0 4 -80 53 -178 109 l-178 102 -135 0 c-74
0 -140 -4 -148 -9z"/>
<path d="M1735 2864 c-11 -2 -45 -9 -75 -15 -189 -38 -315 -176 -312 -344 2
-199 154 -341 407 -384 33 -6 150 -20 260 -31 110 -12 216 -25 235 -30 87 -24
140 -83 140 -159 0 -37 -5 -49 -33 -75 -32 -29 -116 -67 -180 -81 -30 -6 -28
-25 3 -25 32 0 102 -31 143 -62 l37 -29 51 28 c97 52 151 147 152 263 0 150
-121 270 -328 325 -33 9 -116 21 -185 26 -209 17 -315 36 -385 69 -94 45 -145
116 -145 201 0 56 24 95 78 130 55 35 95 37 163 8 63 -28 118 -21 168 19 50
41 51 65 4 111 -54 50 -123 70 -198 55z m140 -44 c8 -13 -15 -13 -35 0 -12 8
-11 10 7 10 12 0 25 -4 28 -10z"/>
<path d="M2185 2856 c-50 -22 -107 -81 -103 -108 4 -29 90 -88 129 -88 15 0
52 9 81 21 69 27 127 22 176 -18 76 -61 88 -132 36 -221 -42 -72 -139 -125
-266 -148 -21 -3 -38 -9 -38 -13 0 -3 38 -18 85 -33 46 -15 103 -39 126 -53
50 -32 66 -29 142 25 88 63 138 149 152 262 13 101 -38 219 -119 282 -107 81
-316 129 -401 92z m5 -46 c0 -5 -4 -10 -9 -10 -5 0 -16 -3 -25 -6 -9 -3 -16
-1 -16 4 0 9 16 17 43 21 4 0 7 -3 7 -9z"/>
<path d="M2015 2720 c-30 -48 -54 -284 -38 -370 l8 -45 58 -3 57 -3 -1 148 c0
177 -20 276 -56 281 -11 2 -24 -2 -28 -8z"/>
<path d="M1570 2123 c-104 -133 -106 -314 -3 -424 74 -80 174 -110 418 -129
191 -15 221 -22 267 -71 67 -70 59 -157 -17 -193 l-37 -18 28 -18 c16 -9 40
-29 53 -44 33 -36 52 -33 96 15 49 54 65 96 65 166 -1 138 -88 249 -225 288
-27 8 -122 22 -209 30 -184 17 -251 36 -307 83 -36 31 -39 38 -39 83 0 64 18
107 70 163 22 24 37 46 33 49 -4 3 -28 8 -53 12 -25 4 -62 13 -82 21 -36 12
-38 12 -58 -13z"/>
<path d="M1990 1958 c0 -64 3 -136 6 -162 7 -46 7 -46 45 -46 l38 0 3 148 c2
81 1 150 -2 154 -3 4 -24 10 -47 14 l-43 7 0 -115z"/>
<path d="M1628 1563 c-48 -107 -33 -211 41 -284 66 -66 128 -86 302 -98 110
-8 151 -15 186 -32 48 -23 83 -69 83 -109 0 -35 -33 -85 -75 -112 -39 -26 -44
-44 -15 -53 11 -4 33 -17 49 -31 l29 -24 49 54 c100 109 96 240 -9 345 -48 49
-98 66 -248 86 -126 18 -228 41 -247 57 -39 32 -32 124 11 175 l24 27 -77 23
c-42 12 -77 22 -79 23 -2 0 -13 -21 -24 -47z"/>
<path d="M2002 1438 l3 -103 33 -3 c29 -3 32 -1 32 26 0 16 3 63 6 105 l7 77
-42 0 -42 0 3 -102z"/>
<path d="M1724 1163 c-41 -96 -25 -198 40 -265 48 -49 104 -72 235 -96 62 -12
124 -28 137 -37 13 -8 28 -32 35 -53 14 -48 -3 -88 -56 -128 -19 -14 -35 -29
-35 -33 0 -4 13 -15 30 -24 35 -21 52 -15 98 37 50 57 64 129 36 194 -33 81
-98 122 -223 141 -91 14 -128 30 -168 70 -53 52 -52 119 3 182 13 14 7 18 -46
32 -33 10 -62 17 -65 17 -3 0 -13 -17 -21 -37z"/>
<path d="M2008 1043 c5 -108 10 -123 45 -123 15 0 17 12 17 115 l0 115 -34 0
-34 0 6 -107z"/>
<path d="M1833 802 c-60 -98 -18 -230 92 -285 17 -8 57 -23 89 -32 75 -22 114
-57 127 -114 12 -54 -2 -102 -38 -131 -48 -37 -52 -30 -55 92 -3 97 -5 113
-20 116 -16 3 -18 -9 -20 -115 l-3 -118 -32 31 c-54 53 -51 123 9 207 11 14
10 19 -2 27 -8 5 -22 10 -31 10 -23 0 -51 -67 -56 -135 -5 -74 15 -111 79
-146 l43 -24 3 -93 c4 -147 21 -115 35 67 2 30 7 35 46 50 60 22 84 57 89 129
7 103 -50 178 -162 212 -76 24 -105 45 -123 88 -19 45 -11 97 18 128 l22 23
-27 11 c-56 21 -71 21 -83 2z"/>
<path d="M2010 686 c0 -53 4 -96 9 -96 5 0 16 -3 25 -6 14 -5 16 6 16 90 0 53
-4 96 -9 96 -5 0 -16 3 -25 6 -14 5 -16 -6 -16 -90z"/>
</g>
</svg>
